<svg width="720" height="620" viewBox="0 0 720 620" fill="none" xmlns="http://www.w3.org/2000/svg">
<rect x="123.39" y="226.138" width="352" height="352" transform="rotate(-25 123.39 226.138)" stroke="white" stroke-width="48"/>
<path d="M621.754 127.603C624.776 119.299 620.494 110.118 612.191 107.095L476.875 57.8444C468.571 54.8221 459.39 59.1035 456.368 67.4071C453.345 75.7108 457.627 84.8923 465.93 87.9145L586.211 131.693L542.432 251.974C539.41 260.277 543.692 269.459 551.995 272.481C560.299 275.503 569.48 271.222 572.503 262.918L621.754 127.603ZM309.867 278.208L613.48 136.631L599.957 107.629L296.343 249.207L309.867 278.208Z" fill="#22C55E"/>
<path d="M98.2465 492.397C95.2242 500.701 99.5056 509.882 107.809 512.905L243.125 562.156C251.429 565.178 260.61 560.897 263.632 552.593C266.655 544.289 262.373 535.108 254.07 532.085L133.789 488.307L177.568 368.026C180.59 359.723 176.308 350.541 168.005 347.519C159.701 344.497 150.52 348.778 147.497 357.082L98.2465 492.397ZM410.133 341.792L106.52 483.369L120.043 512.371L423.657 370.793L410.133 341.792Z" fill="#0EA5E9"/>
</svg>
